<?xml version="1.0" encoding="UTF-8"?>
<svg id="Layer_2" xmlns="http://www.w3.org/2000/svg" width="1080" height="1080" viewBox="0 0 1080 1080">
  <defs>
    <style>
      .cls-1 {
        fill: #281300;
      }

      .cls-2 {
        opacity: .15;
      }

      .cls-3 {
        fill: #dbb98c;
        stroke-width: 5.93px;
      }

      .cls-3, .cls-4 {
        stroke: #42210b;
        stroke-miterlimit: 10;
      }

      .cls-4 {
        fill: #e38079;
        stroke-width: 4.74px;
      }
    </style>
  </defs>
  <g class="cls-2">
    <path class="cls-3" d="M407.77,961.12s-143.45,124.84,0,271.67l30.82-34.56s-49.79-33.19-37.94-75.87l55.72-1.19s-8.3,29.64,16.6,47.42v64.2h48.61v-65.37h132.78s0,65.37,0,65.37h60.46v-68.61s41.49-54.86,8.3-136.67c0,0-36.75-47.42-85.36-48.61h-88.91s-1.19-9.48-27.27-11.86l-58.09,1.19s-13.04-23.71-55.72-7.11Z"/>
    <circle class="cls-1" cx="423.77" cy="1035.21" r="12.45"/>
    <path class="cls-4" d="M546.77,978.9s36.75,104.33-32.01,126.85h147.89v-121.55s-3.26-7.67-115.88-5.3Z"/>
  </g>
  <g class="cls-2">
    <path class="cls-3" d="M928.77,407.12s-143.45,124.84,0,271.67l30.82-34.56s-49.79-33.19-37.94-75.87l55.72-1.19s-8.3,29.64,16.6,47.42v64.2h48.61v-65.37h132.78s0,65.37,0,65.37h60.46v-68.61s41.49-54.86,8.3-136.67c0,0-36.75-47.42-85.36-48.61h-88.91s-1.19-9.48-27.27-11.86l-58.09,1.19s-13.04-23.71-55.72-7.11Z"/>
    <circle class="cls-1" cx="944.77" cy="481.21" r="12.45"/>
    <path class="cls-4" d="M1067.77,424.9s36.75,104.33-32.01,126.85h147.89v-121.55s-3.26-7.67-115.88-5.3Z"/>
  </g>
  <g class="cls-2">
    <path class="cls-3" d="M-149.23,407.12s-143.45,124.84,0,271.67l30.82-34.56s-49.79-33.19-37.94-75.87l55.72-1.19s-8.3,29.64,16.6,47.42v64.2h48.61v-65.37H97.36s0,65.37,0,65.37h60.46v-68.61s41.49-54.86,8.3-136.67c0,0-36.75-47.42-85.36-48.61H-8.16s-1.19-9.48-27.27-11.86l-58.09,1.19s-13.04-23.71-55.72-7.11Z"/>
    <path class="cls-4" d="M-10.23,424.9s36.75,104.33-32.01,126.85H105.66v-121.55s-3.26-7.67-115.88-5.3Z"/>
  </g>
  <g class="cls-2">
    <path class="cls-3" d="M407.77-118.88s-143.45,124.84,0,271.67l30.82-34.56s-49.79-33.19-37.94-75.87l55.72-1.19s-8.3,29.64,16.6,47.42v64.2h48.61v-65.37h132.78s0,65.37,0,65.37h60.46v-68.61s41.49-54.86,8.3-136.67c0,0-36.75-47.42-85.36-48.61h-88.91s-1.19-9.48-27.27-11.86l-58.09,1.19s-13.04-23.71-55.72-7.11Z"/>
    <path class="cls-4" d="M546.77-101.1s36.75,104.33-32.01,126.85h147.89v-121.55s-3.26-7.67-115.88-5.3Z"/>
  </g>
</svg>